<svg width="100" height="71" viewBox="0 0 100 71" fill="none" xmlns="http://www.w3.org/2000/svg">
<path d="M24.2961 6.7955H28.5872C28.5872 5.98843 28.5829 3.01558 28.5829 3.01558C28.5829 3.01558 28.9319 3.00914 29.1947 3.01558C30.1791 3.03704 31.0451 2.83957 31.5298 3.84411C31.7667 4.33565 31.8572 4.93452 31.868 5.48831C31.9046 7.5253 31.8809 9.56444 31.8788 11.6036C31.8788 23.2997 31.8788 34.9958 31.8766 46.6897C31.8766 46.797 31.8766 46.9043 31.8766 47.0117C31.8615 49.2354 30.918 49.4865 28.5872 49.478V47.6255C28.5872 47.6255 25.0027 47.6255 24.2466 47.6255C24.1777 48.3081 24.1195 48.8641 24.057 49.4737H8V3.11432C8.38344 3.11432 8.71949 3.10358 9.0663 3.10144C13.6956 3.07139 18.327 3.07353 22.9563 3.00055C23.9213 2.98553 24.2854 3.27315 24.2854 4.21331C24.2854 5.07618 24.2961 5.8532 24.2961 6.79121V6.7955ZM24.2315 41.6262H28.5872V36.0583H28.5721C28.5721 36.0583 25.5563 36.0346 24.2315 36.0346V41.624V41.6262ZM28.598 24.4287C27.2624 24.4287 24.2078 24.4523 24.2078 24.4523C24.2078 24.4523 24.2035 24.2828 24.1992 24.4588C24.1604 26.1223 24.1755 28.273 24.1755 30.0031H28.598V24.4287ZM24.2358 12.87V18.395H28.598V12.87H24.2358Z" fill="url(#paint0_linear_276_2239)"/>
<path d="M3.19417 70.7826L1.42346 64.9506V70.7826H0.0146484V63.6284H2.6341L3.89427 67.9106L5.21908 63.6284H7.84499V70.7826H6.15182V64.9506L4.34664 70.7826H3.19633H3.19417Z" fill="#F5F5F5"/>
<path d="M14.6262 63.6304L16.873 70.7845H15.0656L14.624 69.3121H12.304L11.8538 70.7845H10.3804L12.681 63.6304H14.6284H14.6262ZM12.7069 67.9898H14.2277L13.4737 65.4806L12.7069 67.9898Z" fill="#F5F5F5"/>
<path d="M21.5521 69.3681H24.4085V70.7826H19.8481V63.6284H21.5521V69.3659V69.3681Z" fill="#F5F5F5"/>
<path d="M29.0848 69.3681H31.9412V70.7826H27.3809V63.6284H29.0848V69.3659V69.3681Z" fill="#F5F5F5"/>
<path d="M39.7436 64.9914H36.3249V66.4596H39.0133V67.8054H36.3249V69.3681H39.7436V70.7826H34.6167V63.6284H39.7436V64.9914Z" fill="#F5F5F5"/>
<path d="M48.3837 63.6304L46.1283 67.7709V70.7845H44.4502V67.7709L42.1948 63.6304H44.1465L45.5144 66.3392L46.8758 63.6304H48.3837Z" fill="#F5F5F5"/>
<path d="M55.5724 64.8603L51.9469 69.4151H55.6887V70.7824H49.894V69.5675L53.513 64.9826H50.1375V63.6304H55.5745V64.8624L55.5724 64.8603Z" fill="#F5F5F5"/>
<path d="M68.5059 65.0449H65.1455V66.6483H67.8015V67.9855H65.1455V70.7845H63.3984V63.6304H68.5059V65.0449Z" fill="#FA001E"/>
<path d="M77.9173 69.3681H80.7737V70.7826H76.2134V63.6284H77.9173V69.3659V69.3681Z" fill="#FA001E"/>
<path d="M72.7001 63.6304V70.7845H71.022V63.6304H72.7001Z" fill="#FA001E"/>
<path d="M86.8612 70.7826L85.0905 64.9506V70.7826H83.6816V63.6284H86.3011L87.5613 67.9106L88.8861 63.6284H91.512V70.7826H89.8188V64.9506L88.0136 70.7826H86.8633H86.8612Z" fill="#FA001E"/>
<path d="M99.6311 65.2016L98.2007 65.6781C98.009 65.1114 97.5997 64.8281 96.9793 64.8281C96.3137 64.8281 95.9819 65.0427 95.9819 65.472C95.9819 65.6437 96.0444 65.7876 96.1693 65.9078C96.2943 66.0258 96.5743 66.1288 97.0116 66.2169C97.744 66.365 98.2783 66.5131 98.6186 66.6633C98.959 66.8136 99.2455 67.0561 99.4781 67.3888C99.7108 67.7215 99.8271 68.095 99.8271 68.5071C99.8271 69.1532 99.5772 69.7113 99.0775 70.1835C98.5777 70.6557 97.8388 70.8897 96.8565 70.8897C96.122 70.8897 95.4951 70.7223 94.9781 70.3896C94.4611 70.0569 94.1207 69.561 93.957 68.9042L95.5145 68.5522C95.689 69.2198 96.1758 69.5525 96.9728 69.5525C97.3584 69.5525 97.6449 69.4773 97.8345 69.3292C98.0241 69.1811 98.1189 69.003 98.1189 68.7969C98.1189 68.5908 98.0327 68.4256 97.8625 68.3097C97.6902 68.1937 97.3606 68.0864 96.8694 67.9855C95.9561 67.7966 95.3034 67.5391 94.9156 67.2128C94.5279 66.8866 94.3319 66.4079 94.3319 65.779C94.3319 65.1501 94.5645 64.607 95.0276 64.1713C95.4908 63.7355 96.122 63.5166 96.9168 63.5166C98.3256 63.5166 99.2304 64.0768 99.6332 65.1994L99.6311 65.2016Z" fill="#FA001E"/>
<path d="M88.6556 0.571289C88.3627 1.78404 88.1085 2.85084 87.85 3.91548C87.682 4.60664 87.4105 5.28707 87.3588 5.98682C87.2317 7.69541 87.1477 9.41258 87.1434 11.1255C87.1219 21.6453 87.0917 32.163 87.1542 42.6828C87.1671 44.7327 87.3782 46.8319 87.8888 48.8088C88.1386 49.7725 88.4079 50.6848 88.3864 51.6786C88.3864 51.7773 88.3368 51.8761 88.2959 52.0328C80.332 52.0328 72.3746 52.0328 64.4193 52.0328C64.415 50.908 64.415 51.4876 64.415 50.7792C65.5481 50.6891 67.6225 50.5517 68.7405 50.3457C69.7551 50.1589 70.3755 49.4635 70.5134 48.4568C70.7072 47.0508 70.9313 45.6342 70.9377 44.2196C70.9765 35.6338 70.9162 27.0458 70.9744 18.4599C71.0024 14.4654 71.2242 10.4729 71.2415 6.43328C66.4657 21.6431 61.69 36.8508 56.9013 52.0972C55.6368 52.0972 54.452 52.1465 53.2759 52.0628C52.9829 52.0414 52.5801 51.6486 52.4637 51.3395C49.7711 44.2111 47.1128 37.0698 44.446 29.9328C41.9903 23.3582 39.5324 16.7835 37.068 10.2111C36.9668 9.93846 36.8074 9.68732 36.4972 9.46838C36.48 9.80323 36.4476 10.1402 36.4476 10.4751C36.4584 22.0316 36.4606 33.5882 36.5058 45.1448C36.5101 46.0828 36.7148 47.053 37.0077 47.9481C37.5441 49.5965 39.0283 50.5066 40.8938 50.5839C42.2488 50.6397 43.692 50.6719 45.1224 50.7792C45.1224 51.1763 45.1224 51.6207 45.1181 52.0306C38.7892 52.0306 32.693 52.0306 26.3705 52.0306V50.7771H26.657C28.1326 50.7771 29.1257 50.6848 30.4096 50.5753C33.4491 50.3199 34.6101 48.7594 34.7286 46.0034C34.9203 41.5022 34.9462 36.9946 34.9656 32.4892C35 24.8328 34.9914 17.1763 34.9591 9.5199C34.9548 8.24275 34.9354 6.91195 34.5886 5.69919C33.7873 2.90235 32.2729 1.86776 28.6712 1.84414C28.2403 1.842 26.3662 1.842 26.3662 1.842V0.532655C26.6592 0.515483 27.0792 0.532655 27.3937 0.532655C34.8622 0.528362 42.3306 0.539092 49.7991 0.506895C50.5616 0.502602 50.8934 0.732276 51.1519 1.45564C54.5705 11.0375 58.0236 20.6064 61.4702 30.1775C61.5543 30.4093 61.6534 30.6347 61.8085 31.0232C65.1194 20.7888 68.3829 10.7005 71.6594 0.571289H88.6535H88.6556Z" fill="#F5F5F5"/>
<defs>
<linearGradient id="paint0_linear_276_2239" x1="19.9943" y1="5.00965" x2="19.8745" y2="47.8381" gradientUnits="userSpaceOnUse">
<stop stop-color="#ED0019"/>
<stop offset="1" stop-color="#FA001A"/>
</linearGradient>
</defs>
</svg>
