<svg width="25" height="47" viewBox="0 0 25 47" fill="none" xmlns="http://www.w3.org/2000/svg">
<path d="M16.7961 3.7955H21.0872C21.0872 2.98843 21.0829 0.0155778 21.0829 0.0155778C21.0829 0.0155778 21.4319 0.00913837 21.6947 0.0155778C22.6791 0.0370424 23.5451 -0.160432 24.0298 0.844113C24.2667 1.33565 24.3572 1.93452 24.368 2.48831C24.4046 4.5253 24.3809 6.56444 24.3788 8.60359C24.3788 20.2997 24.3788 31.9958 24.3766 43.6897C24.3766 43.797 24.3766 43.9043 24.3766 44.0117C24.3615 46.2354 23.418 46.4865 21.0872 46.478V44.6255C21.0872 44.6255 17.5027 44.6255 16.7466 44.6255C16.6777 45.3081 16.6195 45.8641 16.557 46.4737H0.5V0.114317C0.883439 0.114317 1.21949 0.103585 1.5663 0.101438C6.19557 0.0713878 10.827 0.073534 15.4563 0.000554214C16.4213 -0.014471 16.7854 0.273154 16.7854 1.21331C16.7854 2.07618 16.7961 2.8532 16.7961 3.79121V3.7955ZM16.7315 38.6262H21.0872V33.0583H21.0721C21.0721 33.0583 18.0563 33.0346 16.7315 33.0346V38.624V38.6262ZM21.098 21.4287C19.7624 21.4287 16.7078 21.4523 16.7078 21.4523C16.7078 21.4523 16.7035 21.2828 16.6992 21.4588C16.6604 23.1223 16.6755 25.273 16.6755 27.0031H21.098V21.4287ZM16.7358 9.87V15.395H21.098V9.87H16.7358Z" fill="url(#paint0_linear_276_3715)"/>
<defs>
<linearGradient id="paint0_linear_276_3715" x1="12.4943" y1="2.00965" x2="12.3745" y2="44.8381" gradientUnits="userSpaceOnUse">
<stop stop-color="#ED0019"/>
<stop offset="1" stop-color="#FA001A"/>
</linearGradient>
</defs>
</svg>
